<svg width="69" height="68" viewBox="0 0 69 68" fill="none" xmlns="http://www.w3.org/2000/svg">
    <mask id="path-1-inside-1_4_8" fill="white">
        <path
            d="M28.558 67.4919C22.8948 66.5161 17.5688 64.161 13.064 60.6406C8.55927 57.1202 5.01863 52.5462 2.7639 47.3342C0.50917 42.1223 -0.388173 36.4377 0.153428 30.797C0.695028 25.1564 2.6584 19.7385 5.8651 15.0359C9.07181 10.3333 13.4202 6.49492 18.515 3.86974C23.6098 1.24456 29.2896 -0.0842265 35.038 0.00413495C40.7865 0.0924964 46.4215 1.59521 51.4307 4.3757C56.44 7.15619 60.6648 11.1263 63.7211 15.9252L59.2908 18.6656C56.6979 14.5942 53.1136 11.2261 48.8638 8.86712C44.614 6.50819 39.8334 5.23331 34.9565 5.15834C30.0795 5.08338 25.2609 6.21071 20.9385 8.43788C16.6161 10.665 12.927 13.9214 10.2065 17.9111C7.48599 21.9008 5.82029 26.4972 5.36081 31.2826C4.90132 36.0681 5.66261 40.8909 7.5755 45.3126C9.48839 49.7344 12.4922 53.6149 16.314 56.6015C20.1357 59.5882 24.6543 61.5862 29.4589 62.4141L28.558 67.4919Z" />
    </mask>
    <path
        d="M28.558 67.4919C22.8948 66.5161 17.5688 64.161 13.064 60.6406C8.55927 57.1202 5.01863 52.5462 2.7639 47.3342C0.50917 42.1223 -0.388173 36.4377 0.153428 30.797C0.695028 25.1564 2.6584 19.7385 5.8651 15.0359C9.07181 10.3333 13.4202 6.49492 18.515 3.86974C23.6098 1.24456 29.2896 -0.0842265 35.038 0.00413495C40.7865 0.0924964 46.4215 1.59521 51.4307 4.3757C56.44 7.15619 60.6648 11.1263 63.7211 15.9252L59.2908 18.6656C56.6979 14.5942 53.1136 11.2261 48.8638 8.86712C44.614 6.50819 39.8334 5.23331 34.9565 5.15834C30.0795 5.08338 25.2609 6.21071 20.9385 8.43788C16.6161 10.665 12.927 13.9214 10.2065 17.9111C7.48599 21.9008 5.82029 26.4972 5.36081 31.2826C4.90132 36.0681 5.66261 40.8909 7.5755 45.3126C9.48839 49.7344 12.4922 53.6149 16.314 56.6015C20.1357 59.5882 24.6543 61.5862 29.4589 62.4141L28.558 67.4919Z"
        fill="#64FFDA" stroke="#64FFDA" stroke-width="2" mask="url(#path-1-inside-1_4_8)" />
    <path
        d="M54.3984 52.0703C54.3984 52.3438 54.3008 52.5195 54.1055 52.5977C53.5195 53.0664 52.8164 53.5547 51.9961 54.0625C51.2148 54.5312 50.4727 54.9219 49.7695 55.2344C48.9883 55.6641 48.1484 55.9961 47.25 56.2305C46.3906 56.5039 45.4922 56.6406 44.5547 56.6406C42.7969 56.6406 41.3906 56.1523 40.3359 55.1758C39.3203 54.1992 38.4805 52.9492 37.8164 51.4258C37.1914 49.8633 36.6641 48.1445 36.2344 46.2695C35.8047 44.3555 35.2773 42.4805 34.6523 40.6445C34.0664 38.8086 33.3047 37.1094 32.3672 35.5469C31.4688 33.9844 30.2188 32.7734 28.6172 31.9141C27.5234 34.8047 26.3516 37.6367 25.1016 40.4102C23.8516 43.1836 22.2891 45.8008 20.4141 48.2617C19.6328 49.3164 18.7344 50.293 17.7188 51.1914C16.7031 52.0898 15.6094 52.8906 14.4375 53.5938C13.2656 54.2578 12.0156 54.7656 10.6875 55.1172C9.39844 55.5078 8.08984 55.7031 6.76172 55.7031C6.52734 55.7031 6.33203 55.6055 6.17578 55.4102C6.05859 55.2148 6 55.0195 6 54.8242C6 54.3164 6.21484 54.0234 6.64453 53.9453C7.46484 53.7891 8.22656 53.6523 8.92969 53.5352C9.67188 53.3789 10.4336 53.125 11.2148 52.7734C13.0117 51.9531 14.6133 50.8203 16.0195 49.375C17.4258 47.9297 18.6562 46.3281 19.7109 44.5703C20.8047 42.8125 21.7617 40.9766 22.582 39.0625C23.4023 37.1484 24.1445 35.3125 24.8086 33.5547C25.707 31.25 26.5078 28.9453 27.2109 26.6406C27.9141 24.2969 28.7148 21.9727 29.6133 19.668C29.6133 19.4336 29.6719 19.2578 29.7891 19.1406C30.1016 18.3594 30.4141 17.6172 30.7266 16.9141C31.0781 16.2109 31.4492 15.5078 31.8398 14.8047C30.7461 15.4297 29.6328 16.0156 28.5 16.5625C27.3672 17.0703 26.2539 17.6562 25.1602 18.3203C23.5195 19.3359 21.8984 20.5078 20.2969 21.8359C18.7344 23.1641 17.582 24.7656 16.8398 26.6406C16.6836 26.9922 16.5664 27.3438 16.4883 27.6953C16.4492 28.0469 16.3711 28.418 16.2539 28.8086C16.2148 28.9648 16.1172 29.1016 15.9609 29.2188C15.8047 29.2969 15.6484 29.3359 15.4922 29.3359C15.3359 29.3359 15.1211 29.2773 14.8477 29.1602C14.6133 29.0039 14.4961 28.8281 14.4961 28.6328C14.4961 27.1875 14.75 25.8398 15.2578 24.5898C15.8047 23.3398 16.4883 22.1875 17.3086 21.1328C18.168 20.0391 19.1445 19.0625 20.2383 18.2031C21.332 17.3047 22.4453 16.5039 23.5781 15.8008C25.2969 14.707 27.1719 13.6133 29.2031 12.5195C31.2734 11.3867 33.2656 10.4883 35.1797 9.82422H35.3555C35.5898 9.82422 35.8242 9.94141 36.0586 10.1758C36.332 10.3711 36.4688 10.5859 36.4688 10.8203C36.4688 10.8984 36.3906 11.1133 36.2344 11.4648C36.0781 11.8164 35.9023 12.2266 35.707 12.6953C35.5508 13.125 35.375 13.5547 35.1797 13.9844C35.0234 14.375 34.9258 14.6289 34.8867 14.7461C36.332 13.6914 37.9727 12.7539 39.8086 11.9336C41.6445 11.0742 43.5 10.6445 45.375 10.6445C46.1953 10.6445 46.9961 10.7813 47.7773 11.0547C48.5977 11.2891 49.3008 11.6406 49.8867 12.1094C50.5117 12.5781 51 13.1641 51.3516 13.8672C51.7422 14.5703 51.9375 15.3906 51.9375 16.3281C51.9375 17.1875 51.7812 18.0469 51.4688 18.9062C51.1953 19.7266 50.8242 20.4883 50.3555 21.1914C48.4023 24.1211 45.9023 26.5234 42.8555 28.3984C39.8086 30.2344 36.5273 31.3281 33.0117 31.6797C34.0664 32.5 34.9062 33.457 35.5312 34.5508C36.1953 35.6445 36.7422 36.7969 37.1719 38.0078C37.6406 39.2188 38.0117 40.4688 38.2852 41.7578C38.5586 43.0469 38.8516 44.2969 39.1641 45.5078C39.3984 46.4062 39.6133 47.3047 39.8086 48.2031C40.043 49.0625 40.3359 49.9219 40.6875 50.7812C41.1172 51.7969 41.6641 52.6172 42.3281 53.2422C42.9922 53.8672 43.9102 54.1797 45.082 54.1797C45.9023 54.1797 46.7812 54.0234 47.7188 53.7109C48.6562 53.3594 49.5352 52.9883 50.3555 52.5977C51.1758 52.207 51.8594 51.8555 52.4062 51.543C52.9922 51.1914 53.3438 51.0156 53.4609 51.0156C53.7344 51.0156 53.9492 51.1328 54.1055 51.3672C54.3008 51.5625 54.3984 51.7969 54.3984 52.0703ZM49.0078 16.3281C49.0078 15.7812 48.8711 15.332 48.5977 14.9805C48.3633 14.5898 48.0312 14.2773 47.6016 14.043C47.2109 13.8086 46.7812 13.6523 46.3125 13.5742C45.8438 13.457 45.375 13.3984 44.9062 13.3984C43.9297 13.3984 42.9141 13.5547 41.8594 13.8672C40.8438 14.1797 39.8281 14.5703 38.8125 15.0391C37.8359 15.5078 36.8789 16.0352 35.9414 16.6211C35.043 17.207 34.2227 17.793 33.4805 18.3789C32.7773 20.2539 32.0938 22.1094 31.4297 23.9453C30.8047 25.7812 30.1602 27.6367 29.4961 29.5117C31.2539 29.2383 32.9922 28.8672 34.7109 28.3984C36.4688 27.8906 38.1484 27.2461 39.75 26.4648C41.3516 25.6445 42.8359 24.668 44.2031 23.5352C45.6094 22.4023 46.8203 21.0742 47.8359 19.5508C48.1484 19.082 48.4219 18.5742 48.6562 18.0273C48.8906 17.4805 49.0078 16.9141 49.0078 16.3281Z"
        fill="#64FFDA" />
</svg>