<svg width="77" height="77" viewBox="0 0 77 77" fill="none" xmlns="http://www.w3.org/2000/svg">
    <mask id="path-1-inside-1_4_8" fill="white">
        <path
            d="M42 77C35.001 77 28.113 75.3967 21.9619 72.3357C15.8108 69.2748 10.5918 64.8533 6.77903 59.4731C2.96628 54.0929 0.680756 47.9246 0.130162 41.5287C-0.420432 35.1328 0.781365 28.7122 3.62633 22.8504C6.47129 16.9886 10.8692 11.8715 16.4204 7.96407C21.9716 4.05664 28.5 1.48282 35.4124 0.476522C42.3248 -0.529772 49.4019 0.0633671 56.0006 2.20203C62.5992 4.3407 68.5103 7.95708 73.1964 12.7225L71.2592 14.3232C66.864 9.85374 61.3201 6.46193 55.1312 4.45607C48.9422 2.45021 42.3046 1.8939 35.8215 2.8377C29.3384 3.78151 23.2153 6.1955 18.0088 9.86029C12.8024 13.5251 8.67755 18.3245 6.00926 23.8223C3.34096 29.32 2.21379 35.3419 2.7302 41.3406C3.2466 47.3393 5.3902 53.1246 8.96618 58.1707C12.5422 63.2168 17.4371 67.3637 23.2062 70.2346C28.9753 73.1055 35.4356 74.6092 42 74.6092L42 77Z" />
    </mask>
    <path
        d="M42 77C35.001 77 28.113 75.3967 21.9619 72.3357C15.8108 69.2748 10.5918 64.8533 6.77903 59.4731C2.96628 54.0929 0.680756 47.9246 0.130162 41.5287C-0.420432 35.1328 0.781365 28.7122 3.62633 22.8504C6.47129 16.9886 10.8692 11.8715 16.4204 7.96407C21.9716 4.05664 28.5 1.48282 35.4124 0.476522C42.3248 -0.529772 49.4019 0.0633671 56.0006 2.20203C62.5992 4.3407 68.5103 7.95708 73.1964 12.7225L71.2592 14.3232C66.864 9.85374 61.3201 6.46193 55.1312 4.45607C48.9422 2.45021 42.3046 1.8939 35.8215 2.8377C29.3384 3.78151 23.2153 6.1955 18.0088 9.86029C12.8024 13.5251 8.67755 18.3245 6.00926 23.8223C3.34096 29.32 2.21379 35.3419 2.7302 41.3406C3.2466 47.3393 5.3902 53.1246 8.96618 58.1707C12.5422 63.2168 17.4371 67.3637 23.2062 70.2346C28.9753 73.1055 35.4356 74.6092 42 74.6092L42 77Z"
        fill="#64FFDA" stroke="#64FFDA" stroke-width="2" mask="url(#path-1-inside-1_4_8)" />
    <path
        d="M62.3984 52.0703C62.3984 52.3438 62.3008 52.5195 62.1055 52.5977C61.5195 53.0664 60.8164 53.5547 59.9961 54.0625C59.2148 54.5312 58.4727 54.9219 57.7695 55.2344C56.9883 55.6641 56.1484 55.9961 55.25 56.2305C54.3906 56.5039 53.4922 56.6406 52.5547 56.6406C50.7969 56.6406 49.3906 56.1523 48.3359 55.1758C47.3203 54.1992 46.4805 52.9492 45.8164 51.4258C45.1914 49.8633 44.6641 48.1445 44.2344 46.2695C43.8047 44.3555 43.2773 42.4805 42.6523 40.6445C42.0664 38.8086 41.3047 37.1094 40.3672 35.5469C39.4688 33.9844 38.2188 32.7734 36.6172 31.9141C35.5234 34.8047 34.3516 37.6367 33.1016 40.4102C31.8516 43.1836 30.2891 45.8008 28.4141 48.2617C27.6328 49.3164 26.7344 50.293 25.7188 51.1914C24.7031 52.0898 23.6094 52.8906 22.4375 53.5938C21.2656 54.2578 20.0156 54.7656 18.6875 55.1172C17.3984 55.5078 16.0898 55.7031 14.7617 55.7031C14.5273 55.7031 14.332 55.6055 14.1758 55.4102C14.0586 55.2148 14 55.0195 14 54.8242C14 54.3164 14.2148 54.0234 14.6445 53.9453C15.4648 53.7891 16.2266 53.6523 16.9297 53.5352C17.6719 53.3789 18.4336 53.125 19.2148 52.7734C21.0117 51.9531 22.6133 50.8203 24.0195 49.375C25.4258 47.9297 26.6562 46.3281 27.7109 44.5703C28.8047 42.8125 29.7617 40.9766 30.582 39.0625C31.4023 37.1484 32.1445 35.3125 32.8086 33.5547C33.707 31.25 34.5078 28.9453 35.2109 26.6406C35.9141 24.2969 36.7148 21.9727 37.6133 19.668C37.6133 19.4336 37.6719 19.2578 37.7891 19.1406C38.1016 18.3594 38.4141 17.6172 38.7266 16.9141C39.0781 16.2109 39.4492 15.5078 39.8398 14.8047C38.7461 15.4297 37.6328 16.0156 36.5 16.5625C35.3672 17.0703 34.2539 17.6562 33.1602 18.3203C31.5195 19.3359 29.8984 20.5078 28.2969 21.8359C26.7344 23.1641 25.582 24.7656 24.8398 26.6406C24.6836 26.9922 24.5664 27.3438 24.4883 27.6953C24.4492 28.0469 24.3711 28.418 24.2539 28.8086C24.2148 28.9648 24.1172 29.1016 23.9609 29.2188C23.8047 29.2969 23.6484 29.3359 23.4922 29.3359C23.3359 29.3359 23.1211 29.2773 22.8477 29.1602C22.6133 29.0039 22.4961 28.8281 22.4961 28.6328C22.4961 27.1875 22.75 25.8398 23.2578 24.5898C23.8047 23.3398 24.4883 22.1875 25.3086 21.1328C26.168 20.0391 27.1445 19.0625 28.2383 18.2031C29.332 17.3047 30.4453 16.5039 31.5781 15.8008C33.2969 14.707 35.1719 13.6133 37.2031 12.5195C39.2734 11.3867 41.2656 10.4883 43.1797 9.82422H43.3555C43.5898 9.82422 43.8242 9.94141 44.0586 10.1758C44.332 10.3711 44.4688 10.5859 44.4688 10.8203C44.4688 10.8984 44.3906 11.1133 44.2344 11.4648C44.0781 11.8164 43.9023 12.2266 43.707 12.6953C43.5508 13.125 43.375 13.5547 43.1797 13.9844C43.0234 14.375 42.9258 14.6289 42.8867 14.7461C44.332 13.6914 45.9727 12.7539 47.8086 11.9336C49.6445 11.0742 51.5 10.6445 53.375 10.6445C54.1953 10.6445 54.9961 10.7813 55.7773 11.0547C56.5977 11.2891 57.3008 11.6406 57.8867 12.1094C58.5117 12.5781 59 13.1641 59.3516 13.8672C59.7422 14.5703 59.9375 15.3906 59.9375 16.3281C59.9375 17.1875 59.7812 18.0469 59.4688 18.9062C59.1953 19.7266 58.8242 20.4883 58.3555 21.1914C56.4023 24.1211 53.9023 26.5234 50.8555 28.3984C47.8086 30.2344 44.5273 31.3281 41.0117 31.6797C42.0664 32.5 42.9062 33.457 43.5312 34.5508C44.1953 35.6445 44.7422 36.7969 45.1719 38.0078C45.6406 39.2188 46.0117 40.4688 46.2852 41.7578C46.5586 43.0469 46.8516 44.2969 47.1641 45.5078C47.3984 46.4062 47.6133 47.3047 47.8086 48.2031C48.043 49.0625 48.3359 49.9219 48.6875 50.7812C49.1172 51.7969 49.6641 52.6172 50.3281 53.2422C50.9922 53.8672 51.9102 54.1797 53.082 54.1797C53.9023 54.1797 54.7812 54.0234 55.7188 53.7109C56.6562 53.3594 57.5352 52.9883 58.3555 52.5977C59.1758 52.207 59.8594 51.8555 60.4062 51.543C60.9922 51.1914 61.3438 51.0156 61.4609 51.0156C61.7344 51.0156 61.9492 51.1328 62.1055 51.3672C62.3008 51.5625 62.3984 51.7969 62.3984 52.0703ZM57.0078 16.3281C57.0078 15.7812 56.8711 15.332 56.5977 14.9805C56.3633 14.5898 56.0312 14.2773 55.6016 14.043C55.2109 13.8086 54.7812 13.6523 54.3125 13.5742C53.8438 13.457 53.375 13.3984 52.9062 13.3984C51.9297 13.3984 50.9141 13.5547 49.8594 13.8672C48.8438 14.1797 47.8281 14.5703 46.8125 15.0391C45.8359 15.5078 44.8789 16.0352 43.9414 16.6211C43.043 17.207 42.2227 17.793 41.4805 18.3789C40.7773 20.2539 40.0938 22.1094 39.4297 23.9453C38.8047 25.7812 38.1602 27.6367 37.4961 29.5117C39.2539 29.2383 40.9922 28.8672 42.7109 28.3984C44.4688 27.8906 46.1484 27.2461 47.75 26.4648C49.3516 25.6445 50.8359 24.668 52.2031 23.5352C53.6094 22.4023 54.8203 21.0742 55.8359 19.5508C56.1484 19.082 56.4219 18.5742 56.6562 18.0273C56.8906 17.4805 57.0078 16.9141 57.0078 16.3281Z"
        fill="#64FFDA" />
</svg>