            <svg  xmlns="http://www.w3.org/2000/svg" width="=250" height="250" viewBox="0 0 50 50" fill="none">
                <!-- <path style="transform-origin:center" id="gear-1" d="M22.5367 5.57136C22.8101 3.44232 22.9467 2.37781 23.0113 2.16071C23.8263 -0.579034 27.7398 -0.480366 28.4157 2.29697C28.4692 2.51704 28.5521 3.58709 28.7178 5.7272C28.7636 6.3178 28.7864 6.61312 28.8229 6.78836C29.2548 8.86604 31.7508 9.72676 33.3716 8.357C33.5084 8.24144 33.7097 8.02152 34.1125 7.58172C35.6007 5.95652 36.3449 5.14388 36.531 4.99904C38.7654 3.2604 41.8736 5.55716 40.868 8.2036C40.7841 8.42408 40.23 9.367 39.1218 11.2528L38.8907 11.646C38.5432 12.2373 38.3695 12.5329 38.2908 12.7298C37.5385 14.6125 38.9744 16.6458 41.0004 16.5666C41.2124 16.5583 41.552 16.4928 42.232 16.3619C44.784 15.8705 46.06 15.6248 46.3476 15.629C49.0592 15.6685 50.1368 19.1544 47.9204 20.7171C47.6852 20.8829 46.4352 21.4251 43.9356 22.5094C43.1956 22.8304 42.8256 22.9909 42.6236 23.1235C40.9908 24.1964 40.9312 26.5694 42.508 27.7232C42.7028 27.8658 43.064 28.0447 43.7868 28.4026C46.2288 29.6115 47.4496 30.216 47.6764 30.3934C49.8112 32.0658 48.5596 35.493 45.8492 35.3958C45.5616 35.3855 44.2996 35.0758 41.776 34.4565C41.1036 34.2914 40.7672 34.2089 40.556 34.19C38.5367 34.0087 37.0001 35.9672 37.6566 37.8854C37.7252 38.086 37.8839 38.39 38.2011 38.998L38.4121 39.4024C39.4238 41.3416 39.9297 42.3112 40.0023 42.5356C40.8736 45.2296 37.6534 47.3668 35.5095 45.5176C35.3308 45.3636 34.6286 44.5144 33.2242 42.8164C32.8441 42.3568 32.654 42.1272 32.5233 42.0048C30.9736 40.5552 28.4374 41.2888 27.9013 43.342C27.8561 43.5152 27.8184 43.8092 27.7429 44.3968C27.4696 46.5256 27.3329 47.5904 27.2683 47.8072C26.4533 50.5472 22.5398 50.4484 21.8639 47.6712C21.8104 47.4508 21.7275 46.3808 21.5618 44.2408C21.516 43.6504 21.4932 43.3548 21.4567 43.1796C21.0248 41.102 18.5288 40.2412 16.908 41.6112C16.7712 41.7264 16.5699 41.9464 16.1672 42.3864C14.6789 44.0116 13.9348 44.824 13.7486 44.9688C11.5142 46.7076 8.40592 44.4108 9.41172 41.7644C9.49552 41.544 10.0496 40.6012 11.1578 38.7153L11.389 38.322C11.7364 37.7308 11.9101 37.4351 11.9888 37.2383C12.7411 35.3555 11.3052 33.3222 9.27924 33.4014C9.0674 33.4097 8.72744 33.4752 8.04752 33.6061C5.49564 34.0975 4.21968 34.3432 3.93196 34.339C1.22036 34.2995 0.142947 30.8136 2.35934 29.2509C2.59451 29.0851 3.84437 28.543 6.34408 27.4586C7.08408 27.1376 7.45408 26.9771 7.65584 26.8445C9.28868 25.7717 9.34852 23.3986 7.7718 22.2448C7.57696 22.1022 7.21552 21.9233 6.49268 21.5654C4.05077 20.3565 2.82982 19.752 2.60329 19.5746C0.468468 17.9022 1.72017 14.475 4.43032 14.5722C4.71789 14.5825 5.97984 14.8922 8.50372 15.5116C9.17616 15.6766 9.5124 15.7591 9.72356 15.778C11.7429 15.9593 13.2795 14.0009 12.623 12.0826C12.5544 11.882 12.3958 11.578 12.0786 10.9701L11.8675 10.5656C10.8558 8.6264 10.3499 7.6568 10.2773 7.43236C9.40612 4.7386 12.6262 2.60139 14.7701 4.4504C14.9488 4.60448 15.651 5.45356 17.0555 7.15168C17.4356 7.61124 17.6256 7.841 17.7563 7.96332C19.306 9.413 21.8422 8.67916 22.3783 6.62588C22.4236 6.45268 22.4613 6.15892 22.5367 5.57136Z" fill="rgba(255,255,255,0.0)"/> -->
                <circle cx="25.5" cy="25.5" r="11.5" fill="rgba(255,255,255,0.1)" stroke="#0a192f" stroke-width="1"/>
            </svg>