<svg xmlns="http://www.w3.org/2000/svg" width="53" height="61" viewBox="0 0 53 61" fill="none">
    <path
        d="M52.3984 56.0703C52.3984 56.3438 52.3008 56.5195 52.1055 56.5977C51.5195 57.0664 50.8164 57.5547 49.9961 58.0625C49.2148 58.5312 48.4727 58.9219 47.7695 59.2344C46.9883 59.6641 46.1484 59.9961 45.25 60.2305C44.3906 60.5039 43.4922 60.6406 42.5547 60.6406C40.7969 60.6406 39.3906 60.1523 38.3359 59.1758C37.3203 58.1992 36.4805 56.9492 35.8164 55.4258C35.1914 53.8633 34.6641 52.1445 34.2344 50.2695C33.8047 48.3555 33.2773 46.4805 32.6523 44.6445C32.0664 42.8086 31.3047 41.1094 30.3672 39.5469C29.4688 37.9844 28.2188 36.7734 26.6172 35.9141C25.5234 38.8047 24.3516 41.6367 23.1016 44.4102C21.8516 47.1836 20.2891 49.8008 18.4141 52.2617C17.6328 53.3164 16.7344 54.293 15.7188 55.1914C14.7031 56.0898 13.6094 56.8906 12.4375 57.5938C11.2656 58.2578 10.0156 58.7656 8.6875 59.1172C7.39844 59.5078 6.08984 59.7031 4.76172 59.7031C4.52734 59.7031 4.33203 59.6055 4.17578 59.4102C4.05859 59.2148 4 59.0195 4 58.8242C4 58.3164 4.21484 58.0234 4.64453 57.9453C5.46484 57.7891 6.22656 57.6523 6.92969 57.5352C7.67188 57.3789 8.43359 57.125 9.21484 56.7734C11.0117 55.9531 12.6133 54.8203 14.0195 53.375C15.4258 51.9297 16.6562 50.3281 17.7109 48.5703C18.8047 46.8125 19.7617 44.9766 20.582 43.0625C21.4023 41.1484 22.1445 39.3125 22.8086 37.5547C23.707 35.25 24.5078 32.9453 25.2109 30.6406C25.9141 28.2969 26.7148 25.9727 27.6133 23.668C27.6133 23.4336 27.6719 23.2578 27.7891 23.1406C28.1016 22.3594 28.4141 21.6172 28.7266 20.9141C29.0781 20.2109 29.4492 19.5078 29.8398 18.8047C28.7461 19.4297 27.6328 20.0156 26.5 20.5625C25.3672 21.0703 24.2539 21.6562 23.1602 22.3203C21.5195 23.3359 19.8984 24.5078 18.2969 25.8359C16.7344 27.1641 15.582 28.7656 14.8398 30.6406C14.6836 30.9922 14.5664 31.3438 14.4883 31.6953C14.4492 32.0469 14.3711 32.418 14.2539 32.8086C14.2148 32.9648 14.1172 33.1016 13.9609 33.2188C13.8047 33.2969 13.6484 33.3359 13.4922 33.3359C13.3359 33.3359 13.1211 33.2773 12.8477 33.1602C12.6133 33.0039 12.4961 32.8281 12.4961 32.6328C12.4961 31.1875 12.75 29.8398 13.2578 28.5898C13.8047 27.3398 14.4883 26.1875 15.3086 25.1328C16.168 24.0391 17.1445 23.0625 18.2383 22.2031C19.332 21.3047 20.4453 20.5039 21.5781 19.8008C23.2969 18.707 25.1719 17.6133 27.2031 16.5195C29.2734 15.3867 31.2656 14.4883 33.1797 13.8242H33.3555C33.5898 13.8242 33.8242 13.9414 34.0586 14.1758C34.332 14.3711 34.4688 14.5859 34.4688 14.8203C34.4688 14.8984 34.3906 15.1133 34.2344 15.4648C34.0781 15.8164 33.9023 16.2266 33.707 16.6953C33.5508 17.125 33.375 17.5547 33.1797 17.9844C33.0234 18.375 32.9258 18.6289 32.8867 18.7461C34.332 17.6914 35.9727 16.7539 37.8086 15.9336C39.6445 15.0742 41.5 14.6445 43.375 14.6445C44.1953 14.6445 44.9961 14.7813 45.7773 15.0547C46.5977 15.2891 47.3008 15.6406 47.8867 16.1094C48.5117 16.5781 49 17.1641 49.3516 17.8672C49.7422 18.5703 49.9375 19.3906 49.9375 20.3281C49.9375 21.1875 49.7812 22.0469 49.4688 22.9062C49.1953 23.7266 48.8242 24.4883 48.3555 25.1914C46.4023 28.1211 43.9023 30.5234 40.8555 32.3984C37.8086 34.2344 34.5273 35.3281 31.0117 35.6797C32.0664 36.5 32.9062 37.457 33.5312 38.5508C34.1953 39.6445 34.7422 40.7969 35.1719 42.0078C35.6406 43.2188 36.0117 44.4688 36.2852 45.7578C36.5586 47.0469 36.8516 48.2969 37.1641 49.5078C37.3984 50.4062 37.6133 51.3047 37.8086 52.2031C38.043 53.0625 38.3359 53.9219 38.6875 54.7812C39.1172 55.7969 39.6641 56.6172 40.3281 57.2422C40.9922 57.8672 41.9102 58.1797 43.082 58.1797C43.9023 58.1797 44.7812 58.0234 45.7188 57.7109C46.6562 57.3594 47.5352 56.9883 48.3555 56.5977C49.1758 56.207 49.8594 55.8555 50.4062 55.543C50.9922 55.1914 51.3438 55.0156 51.4609 55.0156C51.7344 55.0156 51.9492 55.1328 52.1055 55.3672C52.3008 55.5625 52.3984 55.7969 52.3984 56.0703ZM47.0078 20.3281C47.0078 19.7812 46.8711 19.332 46.5977 18.9805C46.3633 18.5898 46.0312 18.2773 45.6016 18.043C45.2109 17.8086 44.7812 17.6523 44.3125 17.5742C43.8438 17.457 43.375 17.3984 42.9062 17.3984C41.9297 17.3984 40.9141 17.5547 39.8594 17.8672C38.8438 18.1797 37.8281 18.5703 36.8125 19.0391C35.8359 19.5078 34.8789 20.0352 33.9414 20.6211C33.043 21.207 32.2227 21.793 31.4805 22.3789C30.7773 24.2539 30.0938 26.1094 29.4297 27.9453C28.8047 29.7812 28.1602 31.6367 27.4961 33.5117C29.2539 33.2383 30.9922 32.8672 32.7109 32.3984C34.4688 31.8906 36.1484 31.2461 37.75 30.4648C39.3516 29.6445 40.8359 28.668 42.2031 27.5352C43.6094 26.4023 44.8203 25.0742 45.8359 23.5508C46.1484 23.082 46.4219 22.5742 46.6562 22.0273C46.8906 21.4805 47.0078 20.9141 47.0078 20.3281Z"
        fill="#64ffda" />
    <path
        d="M48 1C30.3797 2.29144 20.5066 4.79806 11.7587 10.0756C-0.816547 17.662 -0.304119 27.94 3.01075 34"
        stroke="#64ffda" stroke-width="2" />
</svg>