<svg width="58" height="67" viewBox="0 0 58 67" fill="none" xmlns="http://www.w3.org/2000/svg">
<path d="M54.3984 59.0703C54.3984 59.3438 54.3008 59.5195 54.1055 59.5977C53.5195 60.0664 52.8164 60.5547 51.9961 61.0625C51.2148 61.5312 50.4727 61.9219 49.7695 62.2344C48.9883 62.6641 48.1484 62.9961 47.25 63.2305C46.3906 63.5039 45.4922 63.6406 44.5547 63.6406C42.7969 63.6406 41.3906 63.1523 40.3359 62.1758C39.3203 61.1992 38.4805 59.9492 37.8164 58.4258C37.1914 56.8633 36.6641 55.1445 36.2344 53.2695C35.8047 51.3555 35.2773 49.4805 34.6523 47.6445C34.0664 45.8086 33.3047 44.1094 32.3672 42.5469C31.4688 40.9844 30.2188 39.7734 28.6172 38.9141C27.5234 41.8047 26.3516 44.6367 25.1016 47.4102C23.8516 50.1836 22.2891 52.8008 20.4141 55.2617C19.6328 56.3164 18.7344 57.293 17.7188 58.1914C16.7031 59.0898 15.6094 59.8906 14.4375 60.5938C13.2656 61.2578 12.0156 61.7656 10.6875 62.1172C9.39844 62.5078 8.08984 62.7031 6.76172 62.7031C6.52734 62.7031 6.33203 62.6055 6.17578 62.4102C6.05859 62.2148 6 62.0195 6 61.8242C6 61.3164 6.21484 61.0234 6.64453 60.9453C7.46484 60.7891 8.22656 60.6523 8.92969 60.5352C9.67188 60.3789 10.4336 60.125 11.2148 59.7734C13.0117 58.9531 14.6133 57.8203 16.0195 56.375C17.4258 54.9297 18.6562 53.3281 19.7109 51.5703C20.8047 49.8125 21.7617 47.9766 22.582 46.0625C23.4023 44.1484 24.1445 42.3125 24.8086 40.5547C25.707 38.25 26.5078 35.9453 27.2109 33.6406C27.9141 31.2969 28.7148 28.9727 29.6133 26.668C29.6133 26.4336 29.6719 26.2578 29.7891 26.1406C30.1016 25.3594 30.4141 24.6172 30.7266 23.9141C31.0781 23.2109 31.4492 22.5078 31.8398 21.8047C30.7461 22.4297 29.6328 23.0156 28.5 23.5625C27.3672 24.0703 26.2539 24.6562 25.1602 25.3203C23.5195 26.3359 21.8984 27.5078 20.2969 28.8359C18.7344 30.1641 17.582 31.7656 16.8398 33.6406C16.6836 33.9922 16.5664 34.3438 16.4883 34.6953C16.4492 35.0469 16.3711 35.418 16.2539 35.8086C16.2148 35.9648 16.1172 36.1016 15.9609 36.2188C15.8047 36.2969 15.6484 36.3359 15.4922 36.3359C15.3359 36.3359 15.1211 36.2773 14.8477 36.1602C14.6133 36.0039 14.4961 35.8281 14.4961 35.6328C14.4961 34.1875 14.75 32.8398 15.2578 31.5898C15.8047 30.3398 16.4883 29.1875 17.3086 28.1328C18.168 27.0391 19.1445 26.0625 20.2383 25.2031C21.332 24.3047 22.4453 23.5039 23.5781 22.8008C25.2969 21.707 27.1719 20.6133 29.2031 19.5195C31.2734 18.3867 33.2656 17.4883 35.1797 16.8242H35.3555C35.5898 16.8242 35.8242 16.9414 36.0586 17.1758C36.332 17.3711 36.4688 17.5859 36.4688 17.8203C36.4688 17.8984 36.3906 18.1133 36.2344 18.4648C36.0781 18.8164 35.9023 19.2266 35.707 19.6953C35.5508 20.125 35.375 20.5547 35.1797 20.9844C35.0234 21.375 34.9258 21.6289 34.8867 21.7461C36.332 20.6914 37.9727 19.7539 39.8086 18.9336C41.6445 18.0742 43.5 17.6445 45.375 17.6445C46.1953 17.6445 46.9961 17.7813 47.7773 18.0547C48.5977 18.2891 49.3008 18.6406 49.8867 19.1094C50.5117 19.5781 51 20.1641 51.3516 20.8672C51.7422 21.5703 51.9375 22.3906 51.9375 23.3281C51.9375 24.1875 51.7812 25.0469 51.4688 25.9062C51.1953 26.7266 50.8242 27.4883 50.3555 28.1914C48.4023 31.1211 45.9023 33.5234 42.8555 35.3984C39.8086 37.2344 36.5273 38.3281 33.0117 38.6797C34.0664 39.5 34.9062 40.457 35.5312 41.5508C36.1953 42.6445 36.7422 43.7969 37.1719 45.0078C37.6406 46.2188 38.0117 47.4688 38.2852 48.7578C38.5586 50.0469 38.8516 51.2969 39.1641 52.5078C39.3984 53.4062 39.6133 54.3047 39.8086 55.2031C40.043 56.0625 40.3359 56.9219 40.6875 57.7812C41.1172 58.7969 41.6641 59.6172 42.3281 60.2422C42.9922 60.8672 43.9102 61.1797 45.082 61.1797C45.9023 61.1797 46.7812 61.0234 47.7188 60.7109C48.6562 60.3594 49.5352 59.9883 50.3555 59.5977C51.1758 59.207 51.8594 58.8555 52.4062 58.543C52.9922 58.1914 53.3438 58.0156 53.4609 58.0156C53.7344 58.0156 53.9492 58.1328 54.1055 58.3672C54.3008 58.5625 54.3984 58.7969 54.3984 59.0703ZM49.0078 23.3281C49.0078 22.7812 48.8711 22.332 48.5977 21.9805C48.3633 21.5898 48.0312 21.2773 47.6016 21.043C47.2109 20.8086 46.7812 20.6523 46.3125 20.5742C45.8438 20.457 45.375 20.3984 44.9062 20.3984C43.9297 20.3984 42.9141 20.5547 41.8594 20.8672C40.8438 21.1797 39.8281 21.5703 38.8125 22.0391C37.8359 22.5078 36.8789 23.0352 35.9414 23.6211C35.043 24.207 34.2227 24.793 33.4805 25.3789C32.7773 27.2539 32.0938 29.1094 31.4297 30.9453C30.8047 32.7812 30.1602 34.6367 29.4961 36.5117C31.2539 36.2383 32.9922 35.8672 34.7109 35.3984C36.4688 34.8906 38.1484 34.2461 39.75 33.4648C41.3516 32.6445 42.8359 31.668 44.2031 30.5352C45.6094 29.4023 46.8203 28.0742 47.8359 26.5508C48.1484 26.082 48.4219 25.5742 48.6562 25.0273C48.8906 24.4805 49.0078 23.9141 49.0078 23.3281Z" fill="black"/>
<path d="M50 4C32.3797 5.29144 22.5066 7.79806 13.7587 13.0756C1.18345 20.662 1.69588 30.94 5.01075 37" stroke="black" stroke-width="3"/>
</svg>
